<?xml version="1.0" encoding="UTF-8" standalone="no"?>
<!-- Created with Inkscape (http://www.inkscape.org/) -->

<svg
   version="1.1"
   id="svg1"
   width="993.06488"
   height="293.74792"
   viewBox="0 0 993.06489 293.74793"
   sodipodi:docname="path1.svg"
   xmlns:inkscape="http://www.inkscape.org/namespaces/inkscape"
   xmlns:sodipodi="http://sodipodi.sourceforge.net/DTD/sodipodi-0.dtd"
   xmlns="http://www.w3.org/2000/svg"
   xmlns:svg="http://www.w3.org/2000/svg">
  <defs
     id="defs1" />
  <sodipodi:namedview
     id="namedview1"
     pagecolor="#ffffff"
     bordercolor="#000000"
     borderopacity="0.25"
     inkscape:showpageshadow="2"
     inkscape:pageopacity="0.0"
     inkscape:pagecheckerboard="0"
     inkscape:deskcolor="#d1d1d1">
    <inkscape:page
       x="0"
       y="0"
       width="993.06488"
       height="293.74792"
       id="page1"
       margin="0"
       bleed="0" />
  </sodipodi:namedview>
  <g
     id="g1"
     inkscape:export-filename="almoçu_logo.svg"
     inkscape:export-xdpi="96"
     inkscape:export-ydpi="96"
     transform="translate(-4.2161603,-1.0966823)">
    <path
       d="m 32.99524,231.33687 c -7.832264,-1.70019 -14.08692,-4.69076 -18.653932,-8.91912 -3.500274,-3.24071 -7.0438708,-8.2447 -8.3940738,-11.85344 -2.106763,-5.63083 -2.301054,-14.96806 -0.525192,-25.23975 C 6.3713002,179.834 37.51741,65.212638 40.5894,55.904536 45.27802,41.698047 52.41611,31.423494 60.52987,27.202251 c 6.61955,-3.443871 17.30814,-6.379925 28.68759,-7.880215 8.14623,-1.074014 26.77683,-1.080424 34.44444,-0.01185 10.93303,1.523649 21.70141,4.564994 26.83623,7.579436 9.35867,5.494095 15.84792,16.795111 20.06398,34.941382 0.82351,3.544444 8.31148,31.344444 16.63993,61.777776 8.32845,30.43334 15.53667,57.25326 16.01827,59.59983 1.40094,6.82607 1.94747,14.67818 1.38287,19.86806 -0.84277,7.74687 -3.30299,12.72623 -9.18071,18.58132 -4.78404,4.76563 -10.56513,7.68662 -18.87168,9.53525 -3.61977,0.80559 -6.64046,0.83929 -72.22222,0.80574 -57.16229,-0.0292 -68.92063,-0.13838 -71.33333,-0.66211 z m 57.77778,-24.26398 c 2.36886,-0.69236 5.64465,-2.92574 7.2838,-4.96599 0.80926,-1.0073 2.55147,-3.88141 3.87157,-6.38692 2.76357,-5.24519 2.37314,-5.30554 5.57059,0.86108 3.41716,6.59034 6.99387,9.77379 12.18255,10.84305 8.01971,1.65266 14.34753,-3.32926 15.37932,-12.10822 0.26163,-2.22607 0.3098,-2.29353 1.35399,-1.89653 1.8582,0.70649 7.72828,0.46801 11.03377,-0.44827 1.7062,-0.47295 5.74442,-1.89335 8.97382,-3.15645 l 5.87164,-2.29654 -2.50735,-3.17688 c -1.37904,-1.74729 -3.27198,-4.10548 -4.20654,-5.24044 l -1.6992,-2.06356 3.01806,-3.04755 c 3.21433,-3.24574 4.73203,-5.80914 8.54123,-14.42615 1.32073,-2.98771 2.03773,-5.12705 1.77312,-5.29058 -0.24433,-0.15101 -3.80344,-0.6398 -7.90912,-1.08619 -8.12627,-0.88355 -11.57533,-0.74264 -15.63762,0.63887 -1.34183,0.45633 -2.46411,0.79423 -2.49395,0.75087 -0.0298,-0.0434 -0.65664,-1.65549 -1.39289,-3.58253 l -1.33864,-3.50371 1.51148,-3.27139 c 0.83131,-1.79927 2.13809,-5.1226 2.90396,-7.38518 1.23862,-3.65925 1.39686,-4.70307 1.43222,-9.44712 0.0371,-4.98351 -0.0419,-5.49957 -1.20487,-7.86783 -1.79259,-3.65039 -4.95907,-6.3429 -8.84899,-7.52443 -5.14732,-1.56345 -10.01996,-0.46077 -15.74343,3.56272 -3.52831,2.48034 -10.46717,9.57121 -12.62552,12.9021 -1.18052,1.82185 -1.58941,2.1703 -2.01553,1.71759 -0.29401,-0.31236 -3.2792,-4.46793 -6.63374,-9.23459 -3.35454,-4.76667 -6.82576,-9.42535 -7.71381,-10.35262 -3.34203,-3.48962 -9.06846,-3.75099 -12.78313,-0.58344 -0.94851,0.80881 -2.6707,1.88734 -3.82709,2.39674 -1.15639,0.5094 -2.59681,1.42046 -3.20093,2.02459 -0.60412,0.60412 -1.839,1.34282 -2.74416,1.64155 -2.39853,0.79159 -5.21758,3.80425 -5.92541,6.33237 -1.02386,3.65689 -0.52657,5.28025 4.46765,14.58421 2.53906,4.73014 4.67709,8.83437 4.75117,9.12052 0.13591,0.525 -2.44015,7.66778 -2.98406,8.27405 -0.16129,0.17978 -1.34755,-0.0737 -2.63614,-0.56336 -3.47317,-1.3197 -7.85745,-1.52437 -14.95893,-0.69831 -3.42222,0.39808 -6.85426,0.82696 -7.62676,0.95306 l -1.40454,0.22927 2.33951,5.20957 c 4.5626,10.15991 6.75728,13.68016 9.98785,16.02037 l 1.68623,1.2215 -4.19099,5.31719 -4.19099,5.31718 2.22151,0.97648 c 1.22183,0.53707 4.78676,1.92222 7.92207,3.07812 5.40559,1.99289 5.94202,2.10334 10.36722,2.13463 2.56667,0.0181 5.18917,-0.11392 5.82778,-0.29347 1.14024,-0.3206 1.16536,-0.27974 1.3968,2.27263 0.81072,8.94076 8.21031,14.02129 16.77542,11.51794 z m -7.23924,-8.52694 c -1.42464,-1.32031 -1.9322,-3.79704 -1.24689,-6.08442 0.29892,-0.99769 6.23942,-9.72378 14.05422,-20.64441 7.44503,-10.40394 13.66553,-19.43062 13.82332,-20.05929 0.15779,-0.62868 0.0293,-2.5082 -0.28552,-4.17671 -0.58973,-3.12545 -0.40793,-7.27629 0.44994,-10.27266 1.2265,-4.28395 9.56093,-13.64186 14.44416,-16.21793 3.82825,-2.01954 5.51835,-2.23865 8.00026,-1.03718 2.96779,1.43668 3.94741,3.56357 3.67243,7.97339 -0.36772,5.8973 -4.86981,17.00139 -8.27287,20.40445 -2.15735,2.15735 -6.34879,4.375 -9.0327,4.77911 -4.0187,0.60509 -3.83142,0.33713 -15.2657,21.8415 -5.81683,10.93967 -11.06743,20.55734 -11.66799,21.3726 -2.3706,3.21804 -6.42053,4.20876 -8.67266,2.12155 z m 34.58148,-0.82606 c -1.30279,-1.26889 -3.10876,-4.09839 -5.5021,-8.62039 l -3.56276,-6.73151 2.2633,-4.28264 c 1.24482,-2.35545 2.41558,-4.22628 2.60169,-4.15738 0.39931,0.14781 10.88232,14.629 11.99489,16.5697 1.16336,2.02928 1.43391,4.3919 0.70321,6.14073 -0.8516,2.03816 -2.30527,2.97038 -4.6319,2.97038 -1.66653,0 -2.18911,-0.2553 -3.86633,-1.88889 z m -56.13652,-12.82392 -2.79427,-0.88511 1.46094,-1.68725 c 2.06064,-2.37984 4.44698,-4.38256 5.86393,-4.92129 1.62739,-0.61873 6.78807,-0.5243 8.67838,0.1588 2.4223,0.87535 2.67107,1.71928 1.08852,3.69272 -0.74462,0.92855 -2.42862,2.33828 -3.74221,3.13272 -2.01802,1.22047 -2.80489,1.44057 -5.07468,1.41948 -1.47748,-0.0137 -3.94375,-0.42326 -5.48061,-0.91007 z m 75.17443,0.29211 c -1.81619,-0.79025 -4.92547,-3.61099 -5.76065,-5.22606 -0.65476,-1.26616 -0.65185,-1.27113 1.25099,-2.13475 1.34142,-0.60881 2.90338,-0.86853 5.26471,-0.87539 2.95296,-0.009 3.59547,0.14421 5.33334,1.26831 2.68362,1.73586 6.05091,5.27408 5.51107,5.79085 -1.61989,1.55064 -9.01599,2.30115 -11.59946,1.17704 z M 78.76508,172.32735 c -3.06923,-2.10062 -4.88095,-5.46362 -4.88095,-9.06027 0,-2.42586 1.01843,-7.01716 1.72171,-7.76188 0.48667,-0.51534 5.79795,4.79801 6.51743,6.51997 0.93994,2.24958 0.82215,7.16079 -0.22717,9.4725 -0.47157,1.03889 -1.02075,1.88889 -1.2204,1.88889 -0.19965,0 -1.05943,-0.47664 -1.91062,-1.05921 z m 48.46952,0.41319 c -0.781,-0.94104 -1.79531,-4.57662 -1.79244,-6.42461 0.005,-3.32138 0.85727,-5.01655 4.14518,-8.24628 l 3.15756,-3.1017 0.99166,3.0982 c 1.33448,4.16926 1.30973,6.59749 -0.096,9.41845 -1.05411,2.11531 -4.56352,5.90196 -5.46985,5.90196 -0.21998,0 -0.64122,-0.29071 -0.9361,-0.64602 z m -66.62288,-2.18471 c -2.38306,-0.86239 -4.79338,-3.18956 -6.54192,-6.31624 -0.89166,-1.59444 -1.51926,-3.00092 -1.39467,-3.12551 0.55,-0.55 5.23329,-0.67439 7.51973,-0.19972 1.86697,0.38758 3.03365,0.9833 4.56416,2.3305 1.81825,1.6005 4.23622,5.3394 4.23622,6.55048 0,1.19854 -5.73537,1.71881 -8.38352,0.76049 z m 80.16129,0.0681 c -0.73333,-0.25861 -1.39728,-0.52344 -1.47545,-0.58851 -0.23808,-0.1982 1.75534,-3.8895 2.94246,-5.44869 2.29948,-3.02016 7.11944,-4.60194 11.85775,-3.89138 l 1.99684,0.29944 -1.06394,2.08476 c -1.96971,3.85957 -3.74242,5.87035 -6.17303,7.00203 -2.4887,1.15872 -5.7218,1.37561 -8.08463,0.54235 z m -45.73408,-14.3251 c -0.88928,-1.6513 -3.01702,-2.9123 -4.91405,-2.9123 -2.4767,0 -5.16534,-1.03047 -7.0754,-2.71177 -1.55456,-1.36839 -3.237,-4.09354 -8.2445,-13.35419 -3.46025,-6.39924 -6.233,-11.93083 -6.16166,-12.29243 0.21131,-1.07112 1.56414,-1.71346 2.44222,-1.15958 0.41633,0.26261 3.05021,4.60319 5.85306,9.64573 2.80285,5.04254 5.39039,9.28118 5.7501,9.41922 0.88891,0.3411 2.75248,-0.94257 2.74462,-1.89056 -0.004,-0.42214 -2.4035,-4.8374 -5.33333,-9.81169 -2.92983,-4.97429 -5.32697,-9.38429 -5.32697,-9.8 0,-1.7453 2.01397,-2.39768 3.22521,-1.04473 0.38297,0.42778 3.12659,4.47778 6.09692,9 5.508,8.38573 6.7546,9.67176 8.20687,8.46648 0.38127,-0.31642 0.69322,-0.97144 0.69322,-1.4556 0,-0.48415 -2.62785,-4.69455 -5.83966,-9.35645 -3.21182,-4.6619 -5.92735,-8.81148 -6.03451,-9.22127 -0.18524,-0.70835 0.90129,-2.21094 1.59875,-2.21094 0.80774,0 2.19201,1.75142 9.13311,11.55556 8.67242,12.24958 9.25606,13.55221 8.04015,17.94494 -0.99221,3.58456 -1.30472,6.69291 -0.76913,7.64996 0.33286,0.59478 0.0771,1.26671 -1.11214,2.92208 -0.84942,1.18233 -1.68015,2.14969 -1.84608,2.14969 -0.16593,0 -0.67299,-0.68947 -1.1268,-1.53215 z m 17.28964,-60.059512 c 11.24644,-3.020428 19.95182,-12.451019 23.00876,-24.925517 0.92772,-3.785771 1.08144,-4.077798 2.39884,-4.557113 3.80988,-1.386161 6.70349,-6.456684 6.24114,-10.936456 -0.29262,-2.835196 -1.14226,-4.565661 -3.24376,-6.606612 -4.04846,-3.93182 -10.65518,-3.823706 -14.76108,0.241553 -4.38375,4.340362 -4.17786,10.841772 0.4897,15.463131 l 1.8443,1.826043 -0.76711,2.987772 C 124.23133,82.616414 112.95807,90.825837 101.06097,89.014229 91.51206,87.560188 83.90791,80.214981 81.22271,69.85151 l -0.7432,-2.868382 1.25786,-0.90653 c 3.6006,-2.594909 5.32526,-6.199992 4.90661,-10.256366 -0.29262,-2.835196 -1.14225,-4.565661 -3.24376,-6.606612 -4.04846,-3.93182 -10.65518,-3.823706 -14.76108,0.241553 -3.16359,3.132282 -4.03057,8.007256 -2.13373,11.997901 0.92638,1.948936 3.64473,4.760426 4.91075,5.078995 0.74616,0.187755 1.09785,1.025408 1.93007,4.597021 3.78476,16.242802 16.76679,26.772422 32.09345,26.030731 2.32222,-0.112377 5.42222,-0.526604 6.88889,-0.920503 z m -38,-37.519427 c -0.48888,-0.488888 -0.88888,-1.288888 -0.88888,-1.777777 0,-0.488889 0.4,-1.288889 0.88888,-1.777778 0.48889,-0.488889 1.28889,-0.888889 1.77778,-0.888889 0.48889,0 1.28889,0.4 1.77778,0.888889 0.48889,0.488889 0.88889,1.288889 0.88889,1.777778 0,0.488889 -0.4,1.288889 -0.88889,1.777777 -0.48889,0.488889 -1.28889,0.888889 -1.77778,0.888889 -0.48889,0 -1.28889,-0.4 -1.77778,-0.888889 z m 57.33333,0 c -0.48889,-0.488888 -0.88889,-1.288888 -0.88889,-1.777777 0,-0.488889 0.4,-1.288889 0.88889,-1.777778 0.48889,-0.488889 1.28889,-0.888889 1.77778,-0.888889 0.48889,0 1.28889,0.4 1.77778,0.888889 0.48889,0.488889 0.88889,1.288889 0.88889,1.777778 0,0.488889 -0.4,1.288889 -0.88889,1.777777 -0.48889,0.488889 -1.28889,0.888889 -1.77778,0.888889 -0.48889,0 -1.28889,-0.4 -1.77778,-0.888889 z"
       style="fill:#000000"
       id="path1-5"
       inkscape:label="A" />
    <path
       d="m 231.63447,231.41197 c -7.05766,-1.10771 -11.68614,-3.32831 -16.0671,-7.70846 -3.3662,-3.36558 -5.65654,-7.2476 -7.12712,-12.08013 -0.75967,-2.49635 -0.80947,-7.34898 -0.94164,-91.74687 -0.0914,-58.385486 0.0156,-90.291046 0.31032,-92.533186 1.72493,-13.12122 9.32902,-22.1834003 21.21182,-25.2791903 4.54769,-1.18479005 13.21384,-1.30169005 17.65719,-0.23817 9.04724,2.16547 16.35871,9.2669003 19.72838,19.1616503 l 1.21085,3.55556 v 92.888886 92.88889 l -1.03374,2.88889 c -3.16534,8.84587 -9.9041,15.23214 -18.53716,17.56752 -3.17099,0.85781 -12.65352,1.22448 -16.4118,0.63461 z"
       style="fill:#000000"
       id="path1-1"
       inkscape:label="L" />
    <path
       d="m 293.83359,231.53734 c -9.22031,-1.75019 -16.66236,-7.16478 -20.48142,-14.90159 -3.20575,-6.49434 -3.04201,-2.64726 -2.9078,-68.32156 l 0.12058,-59.001047 1.39321,-3.893873 c 1.86221,-5.204652 3.80143,-8.369258 7.27345,-11.869511 3.38311,-3.410616 7.67929,-5.831567 12.75534,-7.187788 4.60372,-1.230022 13.67217,-1.344248 17.91133,-0.225611 7.95584,2.099402 13.45542,6.647817 17.00711,14.065672 3.26564,6.820422 3.52466,8.326171 3.76532,21.888898 l 0.21096,11.88888 h 2.7739 2.77391 l 0.29569,-5.66666 c 1.08456,-20.784701 7.1719,-32.05846 20.95089,-38.801046 7.38452,-3.613532 15.3601,-4.92517 24.31348,-3.998517 6.3276,0.654891 10.88707,1.869584 15.4643,4.119857 3.09245,1.520322 4.54939,2.627249 8.03125,6.101805 3.90716,3.898981 4.4766,4.696878 6.99408,9.800116 3.88296,7.871255 5.05469,12.740135 6.12827,25.464685 l 0.25481,3.02023 2.74024,-0.13134 2.74023,-0.13135 0.27431,-5.33333 c 0.7784,-15.134136 4.79543,-24.892815 13.65115,-33.16308 5.66924,-5.294443 15.06337,-9.13547 24.29677,-9.934337 1.95555,-0.169193 5.95555,-0.08553 8.88889,0.185909 11.3486,1.05017 17.9303,3.601396 23.8285,9.2365 10.65224,10.177095 14.5505,23.111903 15.9432,52.901158 0.56256,12.03292 0.55548,74.86328 -0.009,79.21829 -0.91203,7.03729 -4.13175,13.20058 -9.37454,17.94503 -4.92055,4.45284 -11.04629,6.77868 -19.05491,7.23481 -15.5556,0.88596 -27.02031,-6.15534 -32.11501,-19.72415 -0.94983,-2.52969 -0.96796,-3.08407 -1.25421,-38.34458 -0.24218,-29.83104 -0.4045,-36.29488 -0.97661,-38.88888 -1.98732,-9.01075 -5.0488,-12.31156 -12.02293,-12.96282 -5.85095,-0.54637 -10.71593,1.5768 -12.92865,5.64229 -0.67364,1.2377 -1.64072,4.09115 -2.14907,6.341 -0.87918,3.89106 -0.93836,5.82537 -1.21298,39.64619 -0.30926,38.0879 -0.22979,36.80049 -2.60282,42.1651 -1.33421,3.01622 -4.54759,7.39639 -7.02764,9.57942 -2.47128,2.1753 -7.31211,4.6315 -11.04341,5.60333 -4.2322,1.10228 -11.33072,1.31737 -16.08,0.48723 -5.34688,-0.9346 -8.35616,-2.10012 -12.39219,-4.79958 -3.91742,-2.62013 -6.86737,-6.05732 -8.9573,-10.43676 -3.08262,-6.45964 -2.91944,-4.23632 -3.22434,-43.93207 -0.26877,-34.9933 -0.30312,-36.09532 -1.2284,-39.40848 -2.11728,-7.58138 -4.81098,-10.21307 -11.1297,-10.8735 -5.76394,-0.60246 -10.95054,1.72788 -12.76347,5.7346 -2.545,5.62466 -2.56303,5.90747 -2.88252,45.21405 -0.3218,39.59118 -0.18999,37.68333 -3.01735,43.67481 -3.48771,7.39082 -9.1914,12.18204 -17.14192,14.39958 -3.3953,0.94701 -12.68983,1.15279 -16.80306,0.37202 z"
       style="fill:#000000"
       id="path1-7"
       inkscape:label="M" />
    <path
       d="m 587.90229,231.65633 c -18.88986,-1.63522 -32.62059,-6.35142 -44.53399,-15.29644 -15.60509,-11.71688 -25.38061,-28.84162 -29.30163,-51.33057 -1.134,-6.50401 -1.59776,-22.46724 -0.86522,-29.78205 2.93962,-29.3538 16.65548,-51.845402 39.09355,-64.106528 11.44703,-6.255149 23.58723,-9.259755 39.38506,-9.747502 16.17961,-0.499534 29.62477,1.813773 41.70931,7.176297 l 2.5982,1.152951 -1.09004,1.431191 c -5.54873,7.285309 -13.45581,19.487866 -18.15058,28.010771 -2.20951,4.01116 -2.4885,4.33682 -3.51133,4.09869 -2.47732,-0.57676 -25.71069,-0.77978 -31.77778,-0.27769 -26.13319,2.16269 -37.11111,9.77307 -37.11111,25.72705 0,8.47106 3.15011,15.41022 8.74227,19.25773 9.48192,6.52373 21.94451,8.73975 46.46483,8.26206 17.66736,-0.34418 25.30423,-1.64283 33.68179,-5.72759 7.34873,-3.58312 11.64367,-9.47732 12.9254,-17.73829 0.89926,-5.79585 -0.42852,-12.47741 -3.33901,-16.80238 l -1.50971,-2.24341 2.24513,-3.01232 c 4.23306,-5.67955 12.15944,-14.58196 15.72085,-17.656663 l 2.32555,-2.007734 2.20232,3.43715 c 6.82718,10.655187 11.42953,23.604777 13.22636,37.214937 0.91382,6.92174 1.03989,21.43543 0.24321,28 -3.39098,27.94159 -15.56662,48.38604 -36.26232,60.88905 -8.68346,5.24599 -18.40083,8.5495 -30.0873,10.22845 -4.50485,0.64719 -19.1083,1.18179 -23.02381,0.84284 z m 21.33333,-88.53284 c 0,-1.05308 2.77828,-2.41674 5.68847,-2.79208 4.10787,-0.52982 3.95101,-0.56048 4.44962,0.86983 0.43268,1.2412 0.39426,1.29139 -1.17875,1.53943 -4.03649,0.63651 -8.95934,0.84685 -8.95934,0.38282 z m -39.77778,-1.20659 c -2.09022,-0.73949 -3.77778,-2.5137 -3.77778,-3.97176 0,-1.30799 2.96004,-4.04773 4.81287,-4.45468 0.74647,-0.16395 1.74792,-0.089 2.22544,0.16656 0.47752,0.25557 1.99712,0.59734 3.37689,0.75951 1.93539,0.22746 2.70781,0.548 3.38007,1.40264 1.21644,1.54646 1.08748,3.06245 -0.38585,4.53577 -2.13329,2.1333 -6.16751,2.78753 -9.63164,1.56196 z m 25.34929,-3.95591 c -2.45456,-0.69017 -5.12707,-3.16374 -5.12707,-4.74542 0,-2.7089 4.42071,-5.29736 9.04712,-5.29736 6.52691,0 11.27536,3.7722 8.86029,7.03869 -2.19446,2.96812 -8.02997,4.33979 -12.78034,3.00409 z m 31.87324,-0.0386 c -1.54855,-0.67307 -2.61786,-2.40024 -2.18477,-3.52886 0.47276,-1.232 3.07339,-2.47201 5.18446,-2.47201 2.11108,0 4.7117,1.24001 5.18447,2.47201 0.44469,1.15884 -0.65461,2.86767 -2.2823,3.54776 -1.92186,0.80301 -4.02637,0.79627 -5.90186,-0.0189 z m -68.91433,-8.56739 -4.13625,-1.1441 1.07767,-1.07767 1.07767,-1.07767 4.09953,1.12042 c 2.25474,0.61623 4.21321,1.2341 4.35215,1.37304 0.34233,0.34233 -1.23794,2.0467 -1.84785,1.99297 -0.26767,-0.0236 -2.34799,-0.55773 -4.62292,-1.18699 z m 16.91433,-2.09928 c -1.54855,-0.67307 -2.61786,-2.40023 -2.18477,-3.52886 0.47276,-1.232 3.07339,-2.472 5.18446,-2.472 2.11108,0 4.7117,1.24 5.18447,2.472 0.44469,1.15885 -0.65461,2.86768 -2.2823,3.54777 -1.92186,0.803 -4.02637,0.79626 -5.90186,-0.0189 z m 14.87292,-8.55974 c -0.0986,-0.18334 -0.0894,-1.18334 0.0204,-2.22222 l 0.19969,-1.88889 h 2.67813 2.67814 l -0.27548,1.66666 c -0.15152,0.91667 -0.27769,1.91667 -0.28038,2.22223 -0.005,0.61027 -4.70016,0.81807 -5.02055,0.22222 z m 34.12677,-0.52387 c -2.66879,-0.64406 -5.55555,-2.70242 -5.55555,-3.9613 0,-0.87984 4.4875,-9.31393 8.98011,-16.8778 10.32591,-17.38494 19.95223,-29.431435 27.45882,-34.3623 7.93143,-5.209933 17.38066,-5.823132 22.22943,-1.44256 4.82585,4.359868 2.73869,8.683077 -6.487,13.436735 -2.42197,1.247953 -6.20258,3.622973 -8.40136,5.277823 -10.21027,7.684492 -23.49277,22.485502 -30.41997,33.897712 -1.26121,2.07778 -2.63316,3.91372 -3.04879,4.07988 -0.96415,0.38543 -3.04631,0.36433 -4.75569,-0.0482 z"
       style="fill:#000000"
       id="path1-2"
       inkscape:label="O" />
    <path
       d="m 730.09616,294.59304 c -3.28081,-0.44527 -8.87113,-1.99194 -11.48732,-3.17817 -8.06102,-3.65504 -12.90584,-8.89049 -14.7386,-15.92693 -0.78041,-2.99617 -0.87173,-10.20261 -0.17182,-13.55888 1.68901,-8.09933 7.91067,-14.47737 16.6432,-17.06154 3.00989,-0.8907 8.87419,-1.03015 18.42121,-0.43804 7.01325,0.43496 9.95501,-0.0106 13.05656,-1.97754 1.13104,-0.71728 2.46022,-1.95829 2.95374,-2.75779 1.26257,-2.04537 2.30251,-5.82682 1.96847,-7.15777 -0.2564,-1.02155 -0.54829,-1.14729 -3.24138,-1.39624 -24.12238,-2.22988 -38.39656,-8.25314 -52.08776,-21.97942 -6.56204,-6.57884 -9.98298,-11.4 -13.97637,-19.69697 -4.25688,-8.84445 -6.71475,-17.03841 -8.29922,-27.66768 -0.9237,-6.19655 -0.80041,-26.23917 0.19956,-32.44095 5.59188,-34.680815 25.74238,-58.037159 56.75973,-65.789909 21.1209,-5.279143 47.64522,-3.072461 64.50857,5.366768 16.36796,8.191315 27.67843,20.114675 35.07142,36.971871 1.8231,4.15695 1.86181,4.34626 1.58,7.72546 -0.75817,9.09116 -4.58527,14.71901 -11.34585,16.68436 -1.9125,0.55598 -3.59898,0.6585 -7.58134,0.46087 -9.6667,-0.47974 -13.66812,-2.45571 -23.56613,-11.63736 -7.41849,-6.88158 -13.2944,-10.07511 -21.56654,-11.7213 -18.58893,-3.69927 -35.83378,0.84724 -44.89895,11.83736 -5.75503,6.9771 -8.62895,17.34876 -7.74367,27.94604 1.44111,17.25078 11.67731,28.75092 28.88281,32.44917 5.24568,1.12754 17.68948,1.12433 23.31541,-0.006 8.65441,-1.73881 14.02669,-4.69351 22.5543,-12.40467 6.44964,-5.83213 7.4551,-6.60123 10.79757,-8.25932 4.24343,-2.10504 7.80991,-2.87356 13.54796,-2.91936 6.13922,-0.049 8.71555,0.6899 11.76525,3.37436 4.23649,3.7291 6.25995,10.3506 5.89331,19.28505 l -0.20484,4.99166 -2.52924,5.25986 c -11.05088,22.9817 -30.25558,36.82624 -57.22381,41.25228 l -1.63265,0.26795 1.92617,3.65291 c 3.48356,6.60639 5.11692,13.5808 5.11692,21.84907 0,14.40747 -5.77184,25.0283 -17.55168,32.29704 -7.759,4.78768 -15.31356,6.65404 -26.51814,6.55131 -3.99493,-0.0366 -7.86351,-0.14802 -8.59685,-0.24755 z"
       style="fill:#000000"
       id="path1-16"
       inkscape:label="Ç" />
    <path
       style="fill:#000000"
       d="m 881.87319,230.16793 c -10.4449,-1.72629 -18.26127,-5.86347 -25.74517,-13.62683 -8.84235,-9.17254 -13.57259,-19.98849 -16.12576,-36.87241 -1.07491,-7.1083 -1.41272,-89.748985 -0.3869,-94.65104 1.69408,-8.095508 6.86147,-14.777515 14.08962,-18.219447 5.0713,-2.41487 8.12394,-3.143832 14.39043,-3.436395 6.04889,-0.282403 10.45341,0.260021 15.02718,1.850621 8.34457,2.901954 14.62188,9.373479 17.47126,18.011807 0.74669,2.263702 0.82506,5.418479 1.05991,42.666674 0.25072,39.765 0.26478,40.2622 1.23695,43.73948 1.12106,4.00979 2.56943,6.70673 4.7994,8.9367 4.07105,4.07105 11.69289,5.71361 18.1306,3.90728 3.5673,-1.00093 6.42911,-3.73792 7.81313,-7.47235 2.44274,-6.59111 2.37629,-5.37122 2.6509,-48.66667 l 0.25511,-40.222195 1.19791,-3.280374 c 3.07604,-8.42347 10.05373,-15.174541 18.62378,-18.018918 2.94596,-0.977754 4.86179,-1.288964 9.07902,-1.474801 10.34676,-0.455943 16.90295,1.829087 23.14245,8.065833 4.3158,4.313828 6.91709,9.093994 7.96489,14.636246 0.9717,5.139499 0.9799,113.043259 0.01,119.405349 -2.0369,13.34866 -8.24809,21.32569 -18.90608,24.28085 -4.48241,1.24286 -15.04106,1.12982 -19.7577,-0.21153 -8.37745,-2.38244 -14.23911,-7.12056 -17.74365,-14.34262 -2.64634,-5.45351 -3.4446,-9.01033 -3.77892,-16.83781 l -0.27524,-6.44444 -2.69388,-0.13014 -2.69388,-0.13014 -0.53209,5.01903 c -0.68935,6.50236 -1.48042,9.45467 -3.85097,14.37202 -4.33536,8.99303 -12.72849,15.44545 -23.77963,18.28116 -5.27892,1.35456 -15.19854,1.76969 -20.67177,0.86509 z"
       id="path1"
       sodipodi:nodetypes="sssssssssssssscssssscsssscccsssss"
       inkscape:label="U" />
  </g>
</svg>
