<svg width="22" height="22" viewBox="0 0 22 22" fill="none" xmlns="http://www.w3.org/2000/svg">
<path fill-rule="evenodd" clip-rule="evenodd" d="M7.24584 8.85006H3.39699C2.83225 8.84573 2.28877 9.05094 1.88613 9.42052C1.48348 9.7901 1.25465 10.2938 1.25 10.8208V18.2796C1.26045 19.3767 2.22149 20.2584 3.39699 20.2491H7.24584C7.81055 20.2535 8.35408 20.0484 8.75674 19.6788C9.15941 19.3092 9.38822 18.8055 9.39284 18.2783V10.8208C9.38822 10.2938 9.15941 9.7901 8.75674 9.42052C8.35408 9.05094 7.81055 8.84573 7.24584 8.85006Z" stroke="#3D3D3D" stroke-width="2.5" stroke-linecap="round" stroke-linejoin="round"/>
<path fill-rule="evenodd" clip-rule="evenodd" d="M7.24584 1.25076H3.39699C2.24514 1.22095 1.28473 2.06684 1.25 3.14174V4.42603C1.28473 5.50095 2.24514 6.34684 3.39699 6.31701H7.24584C8.39765 6.34684 9.35809 5.50095 9.39284 4.42603V3.14174C9.35809 2.06684 8.39765 1.22095 7.24584 1.25076Z" stroke="#3D3D3D" stroke-width="2.5" stroke-linecap="round" stroke-linejoin="round"/>
<path fill-rule="evenodd" clip-rule="evenodd" d="M14.2542 12.6498H18.1016C18.6666 12.6545 19.2104 12.4495 19.6134 12.0799C20.0163 11.7102 20.2454 11.2063 20.25 10.6791V3.22151C20.2454 2.69447 20.0166 2.19073 19.6139 1.82114C19.2112 1.45154 18.6677 1.24636 18.103 1.25074H14.2542C13.6895 1.24636 13.1459 1.45154 12.7433 1.82114C12.3406 2.19073 12.1118 2.69447 12.1072 3.22151V10.6791C12.1118 11.2061 12.3406 11.7098 12.7433 12.0794C13.1459 12.449 13.6895 12.6541 14.2542 12.6498Z" stroke="#3D3D3D" stroke-width="2.5" stroke-linecap="round" stroke-linejoin="round"/>
<path fill-rule="evenodd" clip-rule="evenodd" d="M14.2542 20.2492H18.1016C19.254 20.2797 20.2153 19.4337 20.25 18.3582V17.0739C20.2153 15.999 19.2548 15.1532 18.103 15.183H14.2542C13.1024 15.1532 12.1419 15.999 12.1072 17.0739V18.357C12.1411 19.4324 13.1018 20.279 14.2542 20.2492Z" stroke="#3D3D3D" stroke-width="2.5" stroke-linecap="round" stroke-linejoin="round"/>
</svg>
