<svg width="31" height="31" viewBox="0 0 31 31" fill="none" xmlns="http://www.w3.org/2000/svg">
<path d="M23.278 10.8332C23.278 10.0371 22.9742 9.24091 22.3668 8.63345C21.7593 8.02596 20.963 7.72222 20.1669 7.72222M20.1669 20.1667C25.3216 20.1667 29.5002 15.988 29.5002 10.8333C29.5002 5.67867 25.3216 1.5 20.1669 1.5C15.0123 1.5 10.8336 5.67867 10.8336 10.8333C10.8336 11.2591 10.8621 11.6781 10.9173 12.0887C11.0081 12.7641 11.0535 13.1018 11.0229 13.3154C10.9911 13.538 10.9506 13.6578 10.8409 13.8541C10.7356 14.0424 10.55 14.228 10.1789 14.5992L2.22922 22.5488C1.96019 22.8178 1.82567 22.9524 1.72947 23.1093C1.64418 23.2485 1.58134 23.4002 1.54322 23.559C1.50024 23.7381 1.50024 23.9283 1.50024 24.3086V27.0111C1.50024 27.8824 1.50024 28.3179 1.66978 28.6507C1.81893 28.9434 2.0569 29.1813 2.34959 29.3304C2.68234 29.5 3.11794 29.5 3.98913 29.5H7.72247V26.3889H10.8336V23.2778H13.9447L16.4011 20.8214C16.7722 20.4502 16.9578 20.2647 17.1462 20.1594C17.3425 20.0497 17.4623 20.0091 17.6849 19.9774C17.8984 19.9467 18.2362 19.9921 18.9116 20.083C19.3221 20.1382 19.7412 20.1667 20.1669 20.1667Z" stroke="#3D3D3D" stroke-width="3" stroke-linecap="round" stroke-linejoin="round"/>
</svg>
